<?xml version="1.0" standalone="no"?>
<!DOCTYPE svg PUBLIC "-//W3C//DTD SVG 20010904//EN"
 "http://www.w3.org/TR/2001/REC-SVG-20010904/DTD/svg10.dtd">
<svg version="1.0" xmlns="http://www.w3.org/2000/svg"
 width="384.000000pt" height="384.000000pt" viewBox="0 0 384.000000 384.000000"
 preserveAspectRatio="xMidYMid meet">

<g transform="translate(0.000000,384.000000) scale(0.100000,-0.100000)"
fill="#000000" stroke="none">
<path d="M1484 3149 c-387 -360 -441 -411 -399 -377 257 205 799 628 805 628
6 0 555 -428 805 -628 11 -9 16 -11 10 -5 -28 31 -809 753 -815 753 -4 0 -186
-167 -406 -371z"/>
<path d="M947 2373 c-4 -3 -7 -26 -7 -50 0 -38 11 -60 90 -178 l90 -135 -90 0
-90 0 2 -257 3 -258 194 -3 c218 -3 267 6 339 58 23 16 54 49 69 72 25 38 28
52 28 128 0 83 -1 87 -37 137 l-37 51 21 19 c33 29 59 99 59 157 0 120 -71
206 -204 248 -48 15 -92 18 -241 18 -101 0 -186 -3 -189 -7z m431 -180 c65
-48 67 -107 3 -150 -65 -44 -66 -43 -195 151 l-20 29 92 -5 c72 -3 98 -9 120
-25z m18 -385 c37 -41 42 -71 19 -104 -28 -41 -81 -56 -202 -61 l-113 -3 0
106 0 106 131 -4 131 -3 34 -37z"/>
<path d="M2236 2364 c-3 -8 -6 -31 -6 -50 0 -30 17 -56 110 -170 l110 -134
-110 0 -110 0 2 -257 3 -258 78 -3 77 -3 0 184 0 183 167 3 c92 1 170 4 174 7
3 2 6 34 5 71 l-1 68 -41 5 c-38 5 -48 13 -123 102 -44 53 -81 99 -81 102 0 4
73 6 163 6 89 0 168 4 175 9 9 5 12 28 10 77 l-3 69 -296 3 c-264 2 -297 1
-303 -14z"/>
<path d="M2669 1293 l-24 -28 28 24 c25 23 32 31 24 31 -2 0 -14 -12 -28 -27z"/>
<path d="M2299 893 c-188 -203 -357 -384 -375 -403 l-34 -35 -391 390 c-376
374 -386 383 -253 230 485 -560 639 -735 646 -733 4 2 148 174 319 383 172
209 341 415 376 458 36 42 62 77 59 77 -3 0 -159 -165 -347 -367z"/>
</g>
</svg>
